<mxfile host="65bd71144e">
    <diagram id="o9EUPu8t7UnTjk0e9m3T" name="Page-1">
        <mxGraphModel dx="1822" dy="1024" grid="1" gridSize="10" guides="1" tooltips="1" connect="1" arrows="1" fold="1" page="1" pageScale="1" pageWidth="850" pageHeight="1100" math="0" shadow="0">
            <root>
                <mxCell id="0"/>
                <mxCell id="1" parent="0"/>
                <mxCell id="4" value="Karyawan" style="swimlane;whiteSpace=wrap;html=1;" vertex="1" parent="1">
                    <mxGeometry x="30" y="140" width="360" height="1510" as="geometry"/>
                </mxCell>
                <mxCell id="8" value="" style="edgeStyle=none;html=1;fontColor=#050505;" edge="1" parent="4" source="6" target="7">
                    <mxGeometry relative="1" as="geometry"/>
                </mxCell>
                <mxCell id="6" value="&lt;font&gt;Start&lt;/font&gt;" style="ellipse;whiteSpace=wrap;html=1;aspect=fixed;fillColor=#008a00;strokeColor=#005700;fontColor=#FFFFFF;" vertex="1" parent="4">
                    <mxGeometry x="155" y="40" width="50" height="50" as="geometry"/>
                </mxCell>
                <mxCell id="10" value="" style="edgeStyle=none;html=1;fontColor=#050505;" edge="1" parent="4" source="7" target="9">
                    <mxGeometry relative="1" as="geometry"/>
                </mxCell>
                <mxCell id="7" value="Login sebagai karyawan" style="whiteSpace=wrap;html=1;" vertex="1" parent="4">
                    <mxGeometry x="120" y="130" width="120" height="60" as="geometry"/>
                </mxCell>
                <mxCell id="12" value="" style="edgeStyle=none;html=1;fontColor=#050505;" edge="1" parent="4" source="9" target="11">
                    <mxGeometry relative="1" as="geometry"/>
                </mxCell>
                <mxCell id="9" value="Membuka menu&amp;nbsp;&lt;br&gt;&lt;span&gt;Cash Advance&lt;/span&gt;" style="whiteSpace=wrap;html=1;" vertex="1" parent="4">
                    <mxGeometry x="120" y="230" width="120" height="60" as="geometry"/>
                </mxCell>
                <mxCell id="14" value="" style="edgeStyle=none;html=1;fontColor=#050505;" edge="1" parent="4" source="11" target="13">
                    <mxGeometry relative="1" as="geometry"/>
                </mxCell>
                <mxCell id="11" value="Mengisi Form Pengajuan Cash Advance" style="whiteSpace=wrap;html=1;" vertex="1" parent="4">
                    <mxGeometry x="120" y="330" width="120" height="60" as="geometry"/>
                </mxCell>
                <mxCell id="13" value="Submit Data" style="whiteSpace=wrap;html=1;" vertex="1" parent="4">
                    <mxGeometry x="120" y="430" width="120" height="60" as="geometry"/>
                </mxCell>
                <mxCell id="25" value="Notifikasi Status Pengajuan" style="ellipse;whiteSpace=wrap;html=1;fillColor=#fa6800;fontColor=#FFFFFF;strokeColor=#C73500;" vertex="1" parent="4">
                    <mxGeometry x="100" y="710" width="80" height="80" as="geometry"/>
                </mxCell>
                <mxCell id="54" value="" style="edgeStyle=none;html=1;fontColor=#FFFFFF;" edge="1" parent="4" source="49" target="53">
                    <mxGeometry relative="1" as="geometry"/>
                </mxCell>
                <mxCell id="58" value="Revisi" style="edgeLabel;html=1;align=center;verticalAlign=middle;resizable=0;points=[];fontColor=#FFFFFF;" vertex="1" connectable="0" parent="54">
                    <mxGeometry x="-0.4044" y="-1" relative="1" as="geometry">
                        <mxPoint y="6" as="offset"/>
                    </mxGeometry>
                </mxCell>
                <mxCell id="56" value="" style="edgeStyle=none;html=1;fontColor=#FFFFFF;" edge="1" parent="4" source="49" target="55">
                    <mxGeometry relative="1" as="geometry"/>
                </mxCell>
                <mxCell id="49" value="status?" style="rhombus;whiteSpace=wrap;html=1;" vertex="1" parent="4">
                    <mxGeometry x="100" y="850" width="80" height="80" as="geometry"/>
                </mxCell>
                <mxCell id="50" value="" style="edgeStyle=none;html=1;fontColor=#FFFFFF;" edge="1" parent="4" source="25" target="49">
                    <mxGeometry relative="1" as="geometry"/>
                </mxCell>
                <mxCell id="53" value="Revisi Data" style="whiteSpace=wrap;html=1;" vertex="1" parent="4">
                    <mxGeometry x="80" y="990" width="120" height="60" as="geometry"/>
                </mxCell>
                <mxCell id="55" value="End" style="ellipse;whiteSpace=wrap;html=1;fillColor=#a20025;fontColor=#ffffff;strokeColor=#6F0000;" vertex="1" parent="4">
                    <mxGeometry x="250" y="850" width="80" height="80" as="geometry"/>
                </mxCell>
                <mxCell id="73" value="" style="edgeStyle=none;html=1;fontColor=#FFFFFF;" edge="1" parent="4" source="68" target="72">
                    <mxGeometry relative="1" as="geometry"/>
                </mxCell>
                <mxCell id="68" value="Notifikasi Pengajuan Karyawan" style="ellipse;whiteSpace=wrap;html=1;fillColor=#fa6800;fontColor=#FFFFFF;strokeColor=#C73500;" vertex="1" parent="4">
                    <mxGeometry x="100" y="1110" width="80" height="80" as="geometry"/>
                </mxCell>
                <mxCell id="75" style="edgeStyle=none;html=1;fontColor=#FFFFFF;" edge="1" parent="4" source="72" target="74">
                    <mxGeometry relative="1" as="geometry">
                        <Array as="points">
                            <mxPoint x="290" y="1290"/>
                        </Array>
                    </mxGeometry>
                </mxCell>
                <mxCell id="86" value="Reject / Approve" style="edgeLabel;html=1;align=center;verticalAlign=middle;resizable=0;points=[];fontColor=#000000;" vertex="1" connectable="0" parent="75">
                    <mxGeometry x="-0.1422" y="-1" relative="1" as="geometry">
                        <mxPoint as="offset"/>
                    </mxGeometry>
                </mxCell>
                <mxCell id="78" value="" style="edgeStyle=none;html=1;fontColor=#FFFFFF;" edge="1" parent="4" source="72" target="77">
                    <mxGeometry relative="1" as="geometry"/>
                </mxCell>
                <mxCell id="87" value="Revise" style="edgeLabel;html=1;align=center;verticalAlign=middle;resizable=0;points=[];fontColor=#000000;" vertex="1" connectable="0" parent="78">
                    <mxGeometry x="-0.4578" y="-1" relative="1" as="geometry">
                        <mxPoint as="offset"/>
                    </mxGeometry>
                </mxCell>
                <mxCell id="72" value="status?" style="rhombus;whiteSpace=wrap;html=1;" vertex="1" parent="4">
                    <mxGeometry x="100" y="1250" width="80" height="80" as="geometry"/>
                </mxCell>
                <mxCell id="74" value="End" style="ellipse;whiteSpace=wrap;html=1;fillColor=#a20025;fontColor=#ffffff;strokeColor=#6F0000;" vertex="1" parent="4">
                    <mxGeometry x="250" y="1360" width="80" height="80" as="geometry"/>
                </mxCell>
                <mxCell id="77" value="Revisi Data" style="whiteSpace=wrap;html=1;" vertex="1" parent="4">
                    <mxGeometry x="80" y="1420" width="120" height="60" as="geometry"/>
                </mxCell>
                <mxCell id="5" value="Supervisor" style="swimlane;whiteSpace=wrap;html=1;" vertex="1" parent="1">
                    <mxGeometry x="390" y="140" width="200" height="1510" as="geometry"/>
                </mxCell>
                <mxCell id="20" value="" style="edgeStyle=none;html=1;fontColor=#050505;" edge="1" parent="5" source="17" target="19">
                    <mxGeometry relative="1" as="geometry"/>
                </mxCell>
                <mxCell id="17" value="Notifikasi Pengajuan Karyawan" style="ellipse;whiteSpace=wrap;html=1;fillColor=#fa6800;fontColor=#FFFFFF;strokeColor=#C73500;" vertex="1" parent="5">
                    <mxGeometry x="60" y="510" width="80" height="80" as="geometry"/>
                </mxCell>
                <mxCell id="24" value="" style="edgeStyle=none;html=1;fontColor=#050505;" edge="1" parent="5" source="19" target="23">
                    <mxGeometry relative="1" as="geometry"/>
                </mxCell>
                <mxCell id="19" value="Mengecek Data Pengajuan Karyawan" style="whiteSpace=wrap;html=1;" vertex="1" parent="5">
                    <mxGeometry x="40" y="620" width="120" height="60" as="geometry"/>
                </mxCell>
                <mxCell id="23" value="status?" style="rhombus;whiteSpace=wrap;html=1;" vertex="1" parent="5">
                    <mxGeometry x="60" y="710" width="80" height="80" as="geometry"/>
                </mxCell>
                <mxCell id="67" value="Notifikasi Pengajuan Karyawan" style="ellipse;whiteSpace=wrap;html=1;fillColor=#fa6800;fontColor=#FFFFFF;strokeColor=#C73500;" vertex="1" parent="5">
                    <mxGeometry x="60" y="850" width="80" height="80" as="geometry"/>
                </mxCell>
                <mxCell id="18" value="" style="edgeStyle=none;html=1;fontColor=#050505;" edge="1" parent="1" source="13" target="17">
                    <mxGeometry relative="1" as="geometry">
                        <Array as="points">
                            <mxPoint x="490" y="600"/>
                        </Array>
                    </mxGeometry>
                </mxCell>
                <mxCell id="26" value="" style="edgeStyle=none;html=1;fontColor=#050505;" edge="1" parent="1" source="23" target="25">
                    <mxGeometry relative="1" as="geometry"/>
                </mxCell>
                <mxCell id="82" value="Reject / Revise" style="edgeLabel;html=1;align=center;verticalAlign=middle;resizable=0;points=[];fontColor=#000000;" vertex="1" connectable="0" parent="26">
                    <mxGeometry x="0.2067" relative="1" as="geometry">
                        <mxPoint as="offset"/>
                    </mxGeometry>
                </mxCell>
                <mxCell id="29" value="General Avair " style="swimlane;whiteSpace=wrap;html=1;" vertex="1" parent="1">
                    <mxGeometry x="590" y="140" width="200" height="1510" as="geometry"/>
                </mxCell>
                <mxCell id="43" value="&lt;span style=&quot;color: rgb(255, 255, 255);&quot;&gt;Notifikasi Status Pengajuan&lt;/span&gt;" style="ellipse;whiteSpace=wrap;html=1;fillColor=#fa6800;fontColor=default;strokeColor=#C73500;" vertex="1" parent="29">
                    <mxGeometry x="70" y="420" width="80" height="80" as="geometry"/>
                </mxCell>
                <mxCell id="35" value="Finance" style="swimlane;whiteSpace=wrap;html=1;" vertex="1" parent="1">
                    <mxGeometry x="790" y="140" width="200" height="1510" as="geometry"/>
                </mxCell>
                <mxCell id="64" style="edgeStyle=none;html=1;fontColor=#FFFFFF;" edge="1" parent="35" source="46" target="63">
                    <mxGeometry relative="1" as="geometry"/>
                </mxCell>
                <mxCell id="46" value="Notifikasi Status Pengajuan" style="ellipse;whiteSpace=wrap;html=1;fillColor=#fa6800;fontColor=#FFFFFF;strokeColor=#C73500;" vertex="1" parent="35">
                    <mxGeometry x="80" y="420" width="80" height="80" as="geometry"/>
                </mxCell>
                <mxCell id="66" value="" style="edgeStyle=none;html=1;fontColor=#FFFFFF;" edge="1" parent="35" source="63" target="65">
                    <mxGeometry relative="1" as="geometry"/>
                </mxCell>
                <mxCell id="63" value="Mengecek Data Pengajuan Karyawan" style="whiteSpace=wrap;html=1;" vertex="1" parent="35">
                    <mxGeometry x="60" y="550" width="120" height="60" as="geometry"/>
                </mxCell>
                <mxCell id="65" value="status?" style="rhombus;whiteSpace=wrap;html=1;" vertex="1" parent="35">
                    <mxGeometry x="80" y="680" width="80" height="80" as="geometry"/>
                </mxCell>
                <mxCell id="44" style="edgeStyle=none;html=1;fontColor=#FFFFFF;" edge="1" parent="1" source="23" target="43">
                    <mxGeometry relative="1" as="geometry">
                        <Array as="points">
                            <mxPoint x="620" y="890"/>
                            <mxPoint x="620" y="600"/>
                        </Array>
                    </mxGeometry>
                </mxCell>
                <mxCell id="83" value="Approve" style="edgeLabel;html=1;align=center;verticalAlign=middle;resizable=0;points=[];fontColor=#000000;" vertex="1" connectable="0" parent="44">
                    <mxGeometry x="-0.0543" y="2" relative="1" as="geometry">
                        <mxPoint as="offset"/>
                    </mxGeometry>
                </mxCell>
                <mxCell id="47" style="edgeStyle=none;html=1;fontColor=#FFFFFF;exitX=0.5;exitY=1;exitDx=0;exitDy=0;" edge="1" parent="1" source="23" target="46">
                    <mxGeometry relative="1" as="geometry">
                        <Array as="points">
                            <mxPoint x="490" y="950"/>
                            <mxPoint x="810" y="950"/>
                            <mxPoint x="810" y="600"/>
                        </Array>
                    </mxGeometry>
                </mxCell>
                <mxCell id="84" value="Approve" style="edgeLabel;html=1;align=center;verticalAlign=middle;resizable=0;points=[];fontColor=#000000;" vertex="1" connectable="0" parent="47">
                    <mxGeometry x="0.4416" y="-3" relative="1" as="geometry">
                        <mxPoint as="offset"/>
                    </mxGeometry>
                </mxCell>
                <mxCell id="59" style="edgeStyle=none;html=1;fontColor=#FFFFFF;" edge="1" parent="1" source="53" target="17">
                    <mxGeometry relative="1" as="geometry">
                        <Array as="points">
                            <mxPoint x="90" y="1160"/>
                            <mxPoint x="90" y="690"/>
                        </Array>
                    </mxGeometry>
                </mxCell>
                <mxCell id="69" style="edgeStyle=none;html=1;fontColor=#FFFFFF;" edge="1" parent="1" source="65" target="67">
                    <mxGeometry relative="1" as="geometry">
                        <Array as="points">
                            <mxPoint x="910" y="1030"/>
                        </Array>
                    </mxGeometry>
                </mxCell>
                <mxCell id="85" value="Reject / Revise" style="edgeLabel;html=1;align=center;verticalAlign=middle;resizable=0;points=[];fontColor=#000000;" vertex="1" connectable="0" parent="69">
                    <mxGeometry x="0.16" relative="1" as="geometry">
                        <mxPoint as="offset"/>
                    </mxGeometry>
                </mxCell>
                <mxCell id="71" style="edgeStyle=none;html=1;fontColor=#FFFFFF;exitX=1;exitY=0.5;exitDx=0;exitDy=0;" edge="1" parent="1" source="65" target="68">
                    <mxGeometry relative="1" as="geometry">
                        <Array as="points">
                            <mxPoint x="970" y="860"/>
                            <mxPoint x="970" y="1290"/>
                        </Array>
                    </mxGeometry>
                </mxCell>
                <mxCell id="80" style="edgeStyle=none;html=1;fontColor=#FFFFFF;entryX=0;entryY=0;entryDx=0;entryDy=0;" edge="1" parent="1" source="77" target="17">
                    <mxGeometry relative="1" as="geometry">
                        <Array as="points">
                            <mxPoint x="70" y="1590"/>
                            <mxPoint x="60" y="660"/>
                        </Array>
                    </mxGeometry>
                </mxCell>
            </root>
        </mxGraphModel>
    </diagram>
</mxfile>